<?xml version="1.0" encoding="UTF-8"?>
<!DOCTYPE svg PUBLIC "-//W3C//DTD SVG 1.1//EN" "http://www.w3.org/Graphics/SVG/1.1/DTD/svg11.dtd">
<!-- Creator: CorelDRAW (Versão OEM) -->
<svg xmlns="http://www.w3.org/2000/svg" xml:space="preserve" width="86.6986mm" height="86.6986mm" version="1.1" style="shape-rendering:geometricPrecision; text-rendering:geometricPrecision; image-rendering:optimizeQuality; fill-rule:evenodd; clip-rule:evenodd"
viewBox="0 0 8669.86 8669.86"
 xmlns:xlink="http://www.w3.org/1999/xlink"
 xmlns:xodm="http://www.corel.com/coreldraw/odm/2003">
 <defs>
  <style type="text/css">
   <![CDATA[
    .fil0 {fill:#3A342E}
   ]]>
  </style>
 </defs>
 <g id="Camada_x0020_1">
  <metadata id="CorelCorpID_0Corel-Layer"/>
  <path class="fil0" d="M2529.15 7627.27c-14.55,-15.74 -14.55,-32.68 -6.09,-58.07 33.87,0 50.8,16.94 62.65,33.81 510.76,490.12 1622.02,826.58 2604.52,498.39 794.18,-265.29 1525.48,-1033.01 1621.96,-1972.52l-3.88 -3424.28c-2.77,-2325.18 -4123.28,-3815.82 -4927.94,-18.21 -86.47,408.16 -10.34,2833.48 -3.47,3427.03 48.49,533.36 196.98,716.54 307.09,888.92 574.58,-1662.87 1971.51,-5284.47 1971.51,-5284.47 32.64,-65.31 48.79,-97.65 113.79,-133.34 64.32,-12.79 128.97,-12.79 185.21,4.04l101 94.29c170.97,387.65 1736.63,4434.19 1701.45,4495.2 -179.27,95.94 -387.9,-48.49 -522.94,-158.28 -91.23,-84.16 -351.53,-645.6 -527.31,-968.41l-297.64 -171.73 -1690.66 -26.89c0,0 -642.75,1565.49 -931.69,2370.46 -38.06,37.74 -102.72,37.74 -146.81,16.83 -279.15,-318.51 -424.61,-706.4 -422.25,-1128 -0.15,-744.05 -73.45,-2992.11 2.89,-3420.84 705.89,-3964.05 5267.25,-2598.71 5263.51,13.4l-4.85 3407.44c-188.89,2280.3 -3178.96,3136.91 -4450.05,1515.23zm721.56 -2903.84l1664.76 16.17c0,0 145.46,-290.92 145.46,-290.92 -223.48,-720.27 -552.79,-1493.79 -875.82,-2178.59l-934.4 2453.34z"/>
 </g>
</svg>
